<?xml version="1.0" encoding="utf-8"?>
<svg viewBox="0,0,256,256" width="512px" height="512px" fill-rule="nonzero" xmlns="http://www.w3.org/2000/svg">
  <g fill="none" fill-rule="nonzero" stroke="none" stroke-width="1" stroke-linecap="butt" stroke-linejoin="miter" stroke-miterlimit="10" stroke-dasharray="" stroke-dashoffset="0" font-family="none" font-weight="none" font-size="none" text-anchor="none" style="mix-blend-mode: normal">
    <g transform="scale(0.5,0.5)">
      <path d="M160.32,185.65c8.53,47.51 -10.29,75.38 -7.73,100.2c1.7,16.45 -11.41,23.99 -13.03,45.65c-1.58,21.25 -12.86,27.3 -15.45,42.17l-17.13,77.58l-5.02,22.72c-2.10696,9.48797 3.65758,18.94574 13.05618,21.42104c9.3986,2.4753 19.07395,-2.9161 21.91382,-12.21104c7.78,-25.51 25.35,-78.31 40.82,-124.62c2.74,-8.19 5.41,-16.18 7.95,-23.78c11.90675,-35.33347 31.40296,-67.63261 57.12,-94.63c7.91056,-8.29858 15.24749,-17.12562 21.96,-26.42z" style="fill: rgb(125, 115, 95);"/>
      <path d="M286.82,168.81l-120.97,-37.16c-8.82,4.42 -15.05,10.9 -17.4,19.09c-3.26,11.32 1.5,23.81 11.87,34.9c0,0 -0.01,0.01 0,0.01c10.62,11.38 27.13,21.3 46.91,27c21.34,6.15 42.06,6.12 57.55,1.08c12.87,-4.19 22.12,-11.82 25.11,-22.23c2.1,-7.31 0.86,-15.1 -3.07,-22.69z" style="fill: rgb(101, 88, 68);"/>
      <path d="M321.99,91.7c-4.37394,-36.16053 -32.265,-64.99896 -68.25931,-70.57789c-35.99432,-5.57893 -71.30662,13.46332 -86.42175,46.60315c-15.11513,33.13983 -6.34388,72.28866 21.46637,95.8111c27.81025,23.52244 67.87174,25.67727 98.04469,5.27364v-0.01c15.7999,-10.66326 27.33022,-26.55993 32.56,-44.89c0.29,-0.99 0.55,-1.99 0.8,-2.98l1.82,-29.12z" style="fill: rgb(155, 166, 156);"/>
      <path d="M320.18,120.93c-5.65162,1.8728 -10.77621,5.06411 -14.95,9.31c-0.08331,0.0869 -0.21926,0.09564 -0.31301,0.02012c-0.09375,-0.07552 -0.11416,-0.21021 -0.04699,-0.31012c12.22,-21.38 0.49,-35.42 -5.34,-42.05c-0.18686,-0.22406 -0.18262,-0.55086 0.01,-0.77c0.11167,-0.14105 0.28016,-0.22529 0.46,-0.23c0.09088,0.00312 0.17983,0.02707 0.26,0.07c4.59,2.43 12.62,5.66 21.74,4.84c7.28616,-0.71227 14.12687,-3.83352 19.44,-8.87c0.08215,-0.08109 0.21167,-0.08874 0.30279,-0.01787c0.09111,0.07087 0.11559,0.19829 0.05721,0.29787c-10.1,19.08 0.21,34.35 6.06,40.84c0.18135,0.2107 0.1897,0.51981 0.02,0.74c-0.11198,0.16047 -0.29434,0.25723 -0.49,0.26c-0.08694,0.00034 -0.17268,-0.02024 -0.25,-0.06c-5.57,-2.86 -15.4,-7.62 -26.96,-4.07z" fill="#ffffff"/>
      <path d="M185.85,151.65c-13.40978,-33.35836 -3.31406,-71.56344 24.82441,-93.94264c28.13847,-22.3792 67.63557,-23.61648 97.11959,-3.04236c-18.68165,-26.51538 -51.3366,-39.38931 -83.08675,-32.75622c-31.75014,6.63309 -56.51966,31.50386 -63.02316,63.2808c-6.5035,31.77694 6.50354,64.3791 33.09491,82.95243c-3.59849,-5.137 -6.59449,-10.67066 -8.929,-16.492z" style="fill: rgb(100, 112, 101);"/>
      <path d="M294.3,170.828c14.79683,-11.27882 25.57295,-27.01841 30.736,-44.893c6.9,-1.078 13.312,1.294 19.365,4.405c2.91185,1.46992 6.46043,0.60049 8.363,-2.049c1.82043,-2.50627 1.63559,-5.94529 -0.443,-8.242c-5.462,-6.066 -13.405,-18.552 -5.214,-34.024c1.42006,-2.67389 0.71184,-5.98164 -1.67855,-7.83968c-2.39039,-1.85804 -5.77061,-1.72822 -8.01145,0.30768c-3.00245,2.78758 -6.569,4.89722 -10.458,6.186c-6.21338,-31.92636 -29.66692,-57.74768 -60.85042,-66.99365c-31.18349,-9.24597 -64.9213,-0.382 -87.53303,22.99765c-22.61173,23.37965 -30.34443,57.39457 -20.06256,88.25201c-8.065,5.165 -13.5,12.047 -15.83,20.144c-3.755,13.066 1.057,27.082 12.021,39.424c4.438,26.664 -0.03,46.6 -4,64.222c-2.781,12.329 -5.182,22.976 -4.07,33.744c0.69,6.676 -1.769,11.676 -4.883,18.007c-3.244,6.594 -7.28,14.8 -8.16,26.572c-0.809,10.819 -4.32,17 -8.037,23.54c-2.962,5.212 -6.024,10.6 -7.326,17.917l-22.123,100.17c-1.58421,7.13325 0.15347,14.60005 4.72443,20.30087c4.57096,5.70082 11.48152,9.01996 18.78857,9.02413c10.59505,-0.01904 19.94205,-6.93757 23.055,-17.065c7.765,-25.469 25.219,-77.921 40.781,-124.5l0.009,-0.029l5.424,-16.227l2.506,-7.5c11.57664,-34.52648 30.62419,-66.07549 55.786,-92.4c7.64518,-8.02996 14.76936,-16.54031 21.329,-25.479c14.275,-5.093 23.819,-14.044 27.152,-25.641c2.0078,-7.3914 1.52993,-15.23788 -1.36,-22.331zM331.7,95.805c-0.57893,6.24414 0.39282,12.53463 2.829,18.313c-6.22363,-1.09012 -12.6272,-0.44734 -18.51,1.858c0.7732,-6.2995 -0.19774,-12.69038 -2.807,-18.476c6.20817,0.96747 12.55924,0.3852 18.488,-1.695zM238.47,236.021c-26.36941,27.59483 -46.32932,60.66501 -58.458,96.855l-2.507,7.5l-1.85,5.534c-2.39349,-4.4483 -4.3651,-9.11099 -5.889,-13.927c-0.95766,-3.1726 -4.3059,-4.96816 -7.4785,-4.0105c-3.1726,0.95766 -4.96816,4.3059 -4.0105,7.4785c0.529,1.753 4.942,15.841 12.621,24.695c-15.279,45.745 -32.091,96.321 -39.7,121.289c-1.77781,5.80367 -7.57723,9.39491 -13.565,8.4c-3.27291,-0.55416 -6.17512,-2.4269 -8.02864,-5.18071c-1.85352,-2.75382 -2.496,-6.14751 -1.77736,-9.38829l4.587,-20.779c3.76946,-3.60549 7.18906,-7.5598 10.213,-11.81c1.16882,0.20267 2.35274,0.3057 3.539,0.308c9.816,0 16.808,-6.888 17.175,-7.257c2.33644,-2.34997 2.32547,-6.14906 -0.0245,-8.4855c-2.34997,-2.33644 -6.14906,-2.32547 -8.4855,0.0245c-1.13335,1.02472 -2.41434,1.87321 -3.8,2.517c2.354,-4.024 4.816,-8.583 7.335,-13.76c1.4503,-2.97985 0.21035,-6.5712 -2.7695,-8.0215c-2.97985,-1.4503 -6.5712,-0.21035 -8.0215,2.7695c-2.77721,5.75396 -5.85307,11.35892 -9.215,16.792l11.61,-52.592c0.018,-0.087 0.036,-0.174 0.052,-0.262c0.929,-5.334 3.261,-9.437 5.962,-14.188c4.012,-7.062 8.56,-15.066 9.57,-28.575c0.707,-9.453 3.886,-15.919 6.961,-22.17c2.813,-5.721 5.7,-11.6 6.165,-18.963c7.337,-1.752 20.39,-6.327 28.622,-17.657c1.92445,-2.68132 1.32198,-6.4135 -1.34841,-8.3531c-2.67038,-1.9396 -6.40591,-1.35826 -8.36059,1.3011c-5.166,7.11 -13.423,10.655 -19.17,12.352c0.354,-7 2.071,-14.607 3.983,-23.087c3.336,-14.789 7.335,-32.52 5.814,-54.751c11.33295,8.04213 23.97111,14.06417 37.356,17.8c11.04425,3.23487 22.48597,4.91238 33.994,4.984c3.54072,0.00082 7.079,-0.18578 10.6,-0.559c-3.66933,4.42267 -7.56933,8.815 -11.7,13.177zM284.127,189.84c-2.576,8.965 -11.411,15.8 -24.876,19.245c-14.593,3.734 -32.477,2.955 -50.357,-2.2c-35.214,-10.148 -60.255,-35.1 -54.682,-54.494c1.56061,-4.92618 4.71827,-9.19187 8.974,-12.123c10.53575,21.36878 29.37069,37.48445 52.11188,44.5883c22.74119,7.10386 47.40034,4.5748 68.22612,-6.9973c0.141,-0.078 0.276,-0.165 0.417,-0.244c1.22452,3.9742 1.28904,8.21538 0.186,12.225zM277.711,167.363c-17.44392,9.72596 -38.05731,12.05767 -57.233,6.474c-29.26486,-8.46794 -50.55982,-33.71303 -53.97441,-63.98642c-3.41458,-30.2734 11.72203,-59.62766 38.36541,-74.40158c20.86057,-11.54411 45.9581,-12.51793 67.65046,-2.62493c21.69236,9.893 37.41208,29.4819 42.37254,52.80193c-4.14191,-0.64091 -8.14444,-1.98242 -11.836,-3.967c-2.73321,-1.44822 -6.10706,-0.78596 -8.09,1.588c-2.10494,2.49252 -2.08161,6.14657 0.055,8.612c7.779,8.844 13.724,19.22 4.645,35.116c-1.53249,2.6957 -0.86431,6.10674 1.572,8.025c1.09167,0.84632 2.4347,1.30385 3.816,1.3c1.24781,-0.00296 2.46639,-0.37794 3.5,-1.077c-6.77711,13.59793 -17.5356,24.80883 -30.843,32.14z" style="fill: rgb(26, 26, 26);"/>
      <path d="M259.711,39.751c-20.72124,-5.94232 -43.03678,-1.50723 -59.911,11.907c-2.59298,2.06334 -3.02234,5.83802 -0.959,8.431c2.06334,2.59298 5.83802,3.02234 8.431,0.959c13.83293,-10.9988 32.12751,-14.63678 49.116,-9.767c3.16684,0.86885 6.44379,-0.96954 7.35295,-4.12505c0.90916,-3.15551 -0.88729,-6.45563 -4.03095,-7.40495z" fill="#272f3a"/>
      <path d="M191.457,68.742c-1.38653,-0.78118 -3.0266,-0.9795 -4.55937,-0.55135c-1.53277,0.42815 -2.83265,1.44771 -3.61363,2.83435c-2.55405,4.54212 -4.57031,9.3663 -6.008,14.375c-0.91541,3.18503 0.92447,6.50909 4.1095,7.4245c3.18503,0.91541 6.50909,-0.92447 7.4245,-4.1095c1.17869,-4.11157 2.83286,-8.07166 4.929,-11.8c0.78126,-1.38641 0.97974,-3.02639 0.55177,-4.55914c-0.42796,-1.53275 -1.44731,-2.83271 -2.83377,-3.61386z" fill="#272f3a"/>
    </g>
  </g>
</svg>